<svg xmlns="http://www.w3.org/2000/svg" viewBox="0 0 1440 320"><path fill="#0099ff" fill-opacity="1" d="M0,32L6.2,53.3C12.3,75,25,117,37,122.7C49.2,128,62,96,74,90.7C86.2,85,98,107,111,122.7C123.1,139,135,149,148,133.3C160,117,172,75,185,90.7C196.9,107,209,181,222,208C233.8,235,246,213,258,181.3C270.8,149,283,107,295,80C307.7,53,320,43,332,42.7C344.6,43,357,53,369,96C381.5,139,394,213,406,208C418.5,203,431,117,443,85.3C455.4,53,468,75,480,122.7C492.3,171,505,245,517,256C529.2,267,542,213,554,165.3C566.2,117,578,75,591,58.7C603.1,43,615,53,628,90.7C640,128,652,192,665,202.7C676.9,213,689,171,702,144C713.8,117,726,107,738,122.7C750.8,139,763,181,775,208C787.7,235,800,245,812,213.3C824.6,181,837,107,849,69.3C861.5,32,874,32,886,42.7C898.5,53,911,75,923,80C935.4,85,948,75,960,80C972.3,85,985,107,997,144C1009.2,181,1022,235,1034,261.3C1046.2,288,1058,288,1071,277.3C1083.1,267,1095,245,1108,240C1120,235,1132,245,1145,208C1156.9,171,1169,85,1182,85.3C1193.8,85,1206,171,1218,186.7C1230.8,203,1243,149,1255,128C1267.7,107,1280,117,1292,133.3C1304.6,149,1317,171,1329,181.3C1341.5,192,1354,192,1366,181.3C1378.5,171,1391,149,1403,165.3C1415.4,181,1428,235,1434,261.3L1440,288L1440,320L1433.8,320C1427.7,320,1415,320,1403,320C1390.8,320,1378,320,1366,320C1353.8,320,1342,320,1329,320C1316.9,320,1305,320,1292,320C1280,320,1268,320,1255,320C1243.1,320,1231,320,1218,320C1206.2,320,1194,320,1182,320C1169.2,320,1157,320,1145,320C1132.3,320,1120,320,1108,320C1095.4,320,1083,320,1071,320C1058.5,320,1046,320,1034,320C1021.5,320,1009,320,997,320C984.6,320,972,320,960,320C947.7,320,935,320,923,320C910.8,320,898,320,886,320C873.8,320,862,320,849,320C836.9,320,825,320,812,320C800,320,788,320,775,320C763.1,320,751,320,738,320C726.2,320,714,320,702,320C689.2,320,677,320,665,320C652.3,320,640,320,628,320C615.4,320,603,320,591,320C578.5,320,566,320,554,320C541.5,320,529,320,517,320C504.6,320,492,320,480,320C467.7,320,455,320,443,320C430.8,320,418,320,406,320C393.8,320,382,320,369,320C356.9,320,345,320,332,320C320,320,308,320,295,320C283.1,320,271,320,258,320C246.2,320,234,320,222,320C209.2,320,197,320,185,320C172.3,320,160,320,148,320C135.4,320,123,320,111,320C98.5,320,86,320,74,320C61.5,320,49,320,37,320C24.6,320,12,320,6,320L0,320Z"></path></svg>